<svg xmlns="http://www.w3.org/2000/svg" width="44" height="44" viewBox="0 0 490.88 490.88"><path fill="var(--color-out)" xmlns="http://www.w3.org/2000/svg" d="M490.88 245.419C490.868 109.866 380.971-.012 245.419 0 109.866.012-.011 109.909 0 245.461.012 381.005 109.896 490.88 245.44 490.88c135.498-.153 245.299-109.964 245.44-245.461z" data-original="#4caf50"/><path fill="var(--color-in)" xmlns="http://www.w3.org/2000/svg" d="M106.667 202.88a10.667 10.667 0 0118.219-7.552l120.448 120.491 120.447-120.491c4.237-4.092 10.99-3.975 15.083.262 3.992 4.134 3.992 10.687 0 14.82l-128 128c-4.165 4.164-10.917 4.164-15.083 0l-128-128a10.66 10.66 0 01-3.114-7.53z" data-original="#fafafa"/></svg>