<svg xmlns="http://www.w3.org/2000/svg" width="40" height="40" viewBox="0 0 489.8 489.8"><g xmlns="http://www.w3.org/2000/svg"><path d="M413.071 31.837H76.729c-24.795 0-44.892 20.184-44.892 44.892v336.342c0 24.795 20.184 44.892 44.892 44.892h336.342c24.795 0 44.892-20.184 44.892-44.892V76.729c0-24.708-20.184-44.892-44.892-44.892zm23.577 381.234c0 12.963-10.614 23.577-23.577 23.577H76.729c-12.963 0-23.577-10.614-23.577-23.577V76.729c0-12.963 10.614-23.577 23.577-23.577h336.342c12.963 0 23.577 10.614 23.577 23.577v336.342z" data-original="#000000"/><path d="M309.367 180.433a10.607 10.607 0 00-15.051 0L244.9 229.849l-49.416-49.416c-4.176-4.176-10.875-4.176-15.051 0s-4.176 10.875 0 15.051l49.416 49.416-49.416 49.416a10.607 10.607 0 000 15.051c2.088 2.088 4.785 3.132 7.569 3.132s5.481-1.044 7.569-3.132l49.416-49.416 49.416 49.416c2.088 2.088 4.785 3.132 7.569 3.132s5.481-1.044 7.569-3.132a10.607 10.607 0 000-15.051l-49.59-49.416 49.416-49.416a10.607 10.607 0 000-15.051z" data-original="#000000"/></g></svg>