<svg width="46" height="42" xmlns="http://www.w3.org/2000/svg" xmlns:xlink="http://www.w3.org/1999/xlink" xmlns:svgjs="http://svgjs.com/svgjs" viewBox="282 4972 46 42"><svg width="46" height="42" xmlns="http://www.w3.org/2000/svg" xmlns:xlink="http://www.w3.org/1999/xlink" xmlns:svgjs="http://svgjs.com/svgjs" viewBox="0 0.044 46 41.912" fill="#fff" x="282" y="4972"><svg xmlns="http://www.w3.org/2000/svg" xmlns:xlink="http://www.w3.org/1999/xlink" width="46" height="42" viewBox="1.002 1.997 44.997 40.998"><path paint-order="stroke fill markers" fill-rule="evenodd" d="M12.251 42.995l-11.25-20.5 11.25-20.498H34.75L46 22.496l-11.25 20.5H12.251z"/></svg></svg><svg width="16" height="16" xmlns="http://www.w3.org/2000/svg" xmlns:xlink="http://www.w3.org/1999/xlink" xmlns:svgjs="http://svgjs.com/svgjs" viewBox="0 0.112 16 15.777" fill="#ff0036" x="298" y="4987"><svg xmlns="http://www.w3.org/2000/svg" width="16" height="16" viewBox="1.651 1.996 14.344 14.144"><path paint-order="stroke fill markers" fill-rule="evenodd" d="M9.087 10.081c-.395-.29-1.252-.885-1.252-1.284 0-.469.136-.699.854-1.25.735-.566 1.255-1.309 1.255-2.232 0-1.006-.418-1.918-1.206-2.36h1.116l.95-.959h-4.25c-2.157 0-3.955 1.541-3.955 3.26 0 1.756 1.181 3.157 3.21 3.157.14 0 .278-.01.412-.018a1.741 1.741 0 00-.226.815c0 .486.273.766.611 1.087-.255 0-.501.007-.77.007-2.47 0-4.185.77-4.185 3.154 0 1.579 2.07 2.682 4.54 2.682 2.815 0 4.571-1.465 4.546-3.147-.02-1.263-.278-1.9-1.65-2.912zM4.322 5.345c-.189-1.396.764-2.368 1.851-2.338C7.26 3.04 7.968 4.09 8.155 5.485c.187 1.397-.437 2.257-1.524 2.226-1.088-.033-2.122-.969-2.309-2.366zm1.82 9.761c-1.604 0-2.763-.907-2.763-2.02 0-1.093 1.3-1.672 2.871-1.672.585 0 2.338 0 2.883 1.334.047.124.05.26.05.393 0 1.117-.785 1.965-3.041 1.965zm9.854-10.422H13.95V6.71h-.68V4.684h-2.04V4.02h2.042V1.998h.679V4.02h2.045v.664z"/></svg></svg></svg>