<svg width="70" height="70" xmlns="http://www.w3.org/2000/svg"><path fill="var(--color-follow-out)" d="M-41.489-9.175l16.3-29.753H7.407L23.706-9.175 7.408 20.578H-25.19L-41.489-9.175z" transform="matrix(1.02777 0 0 1.06349 43.624 45.644)" stroke="null"/><path fill="var(--color-follow-in)" d="M41.877 33.14v-2.29h-1.379v2.29H38.43v1.526h2.068v2.29h1.38v-2.29h2.068v-1.527h-2.069zm-5.309 2.594l-.758-.61c-.276-.23-.552-.535-.552-1.069s.345-.992.69-1.221c.896-.763 1.792-1.603 1.792-3.282 0-1.603-.896-2.52-1.379-2.977h1.172l.828-1.069h-4.275c-3.034 0-4.55 2.137-4.55 4.427 0 1.756 1.24 3.664 3.447 3.664h.551c-.069.23-.276.61-.276.992 0 .764.276 1.07.62 1.527-.964.076-2.757.305-4.067 1.221-1.241.84-1.586 1.985-1.586 2.824 0 1.756 1.448 3.435 4.55 3.435 3.724 0 5.517-2.29 5.517-4.503 0-1.603-.759-2.443-1.724-3.359zm-5.24-6.946c0-1.679.896-2.442 1.861-2.442 1.793 0 2.758 2.671 2.758 4.198 0 1.985-1.447 2.366-2 2.366-1.723 0-2.62-2.366-2.62-4.122zm2.482 13.74c-2.275 0-3.723-1.145-3.723-2.825 0-1.679 1.379-2.213 1.792-2.442.897-.305 2.069-.382 2.276-.382h.482c1.655 1.298 2.345 1.832 2.345 3.053 0 1.45-1.31 2.596-3.172 2.596z" stroke="null"/></svg>