<svg xmlns="http://www.w3.org/2000/svg" width="30" height="30" viewBox="0 0 85.356 85.356"><path d="M77.45 57.695V16.599a3.17 3.17 0 00-3.16-3.16H11.066a3.169 3.169 0 00-3.164 3.16v41.096L0 67.179a4.742 4.742 0 004.742 4.738h75.872a4.745 4.745 0 004.742-4.738l-7.906-9.484zM49.005 70.342H36.358a.789.789 0 01-.791-.791c0-.44.354-.791.791-.791h12.648c.433 0 .791.351.791.791a.8.8 0 01-.792.791zm-19.358-3.16l2.412-2.895h21.233l2.416 2.895H29.647zm43.354-15.078a2.762 2.762 0 01-2.756 2.759H15.11a2.769 2.769 0 01-2.756-2.759V19.036a2.762 2.762 0 012.756-2.759h55.136a2.767 2.767 0 012.756 2.759l-.001 33.068z" fill="#010002" data-original="#010002" xmlns="http://www.w3.org/2000/svg"/></svg>