<svg width="70" height="70" xmlns="http://www.w3.org/2000/svg">

<!--  <g>
  <title>background</title>
  <rect fill="none" id="canvas_background" height="72" width="72" y="-1" x="-1"/>
 </g> -->
 <g>
  <title>Layer 1</title>
  <g stroke="null" id="svg_23">
   <g stroke="null" transform="matrix(0.3838792890205296,0,0,0.42110056334280577,-14.345360621039298,-8.462511737054468) " id="svg_6">
    <path fill="var(--color-follow-out)"  stroke="null" id="svg_7" d="m36.819697,102.222242l46.188,-80l92.378,0l46.185,80l-46.185,80l-92.378,0l-46.188,-80z"/>
    <g stroke="null" id="svg_8"/>
    <g stroke="null" id="svg_9"/>
    <g stroke="null" id="svg_10"/>
    <g stroke="null" id="svg_11"/>
    <g stroke="null" id="svg_12"/>
    <g stroke="null" id="svg_13"/>
    <g stroke="null" id="svg_14"/>
    <g stroke="null" id="svg_15"/>
    <g stroke="null" id="svg_16"/>
    <g stroke="null" id="svg_17"/>
    <g stroke="null" id="svg_18"/>
    <g stroke="null" id="svg_19"/>
    <g stroke="null" id="svg_20"/>
    <g stroke="null" id="svg_21"/>
    <g stroke="null" id="svg_22"/>
   </g>
  </g>
  <g stroke="null" id="svg_1">
   <path fill="var(--color-follow-in)"  stroke="null" id="svg_2" fill="#ffffff" d="m36.8284,23.999998c-4.948224,0.000757 -7.578402,3.191263 -7.578402,6.670164c0,1.613041 0.89578,3.625747 2.33008,4.263849c0.409155,0.185451 0.355003,-0.040875 0.706997,-1.395799c0.027829,-0.112784 0.013538,-0.21043 -0.076717,-0.315644c-2.05029,-2.386635 -0.40013,-7.293127 4.325466,-7.293127c6.839064,0 5.561205,9.523832 1.18986,9.523832c-1.126682,0 -1.966052,-0.890163 -1.700553,-1.991512c0.321909,-1.311779 0.952189,-2.72196 0.952189,-3.667379c0,-2.38285 -3.527462,-2.029359 -3.527462,1.127842c0,0.975697 0.342969,1.634236 0.342969,1.634236s-1.134955,4.614312 -1.34555,5.476468c-0.356507,1.459382 0.048136,3.821795 0.083486,4.025412c0.021812,0.112027 0.146664,0.147603 0.216612,0.055257c0.112066,-0.147603 1.483941,-2.117164 1.868276,-3.54097c0.139895,-0.518505 0.713766,-2.622801 0.713766,-2.622801c0.378318,0.687302 1.468898,1.262578 2.63093,1.262578c3.456762,0 5.955318,-3.058042 5.955318,-6.852587c-0.012034,-3.637859 -3.10552,-6.359818 -7.087265,-6.359818z"/>
  </g>
 </g>
</svg>