<?xml version="1.0"?><svg viewBox="0 0 70 70" xmlns="http://www.w3.org/2000/svg" xmlns:xlink="http://www.w3.org/1999/xlink"><style>:root>svg{display:none}:root>svg:target{display:block}</style><svg width="44" height="44" viewBox="0 0 490.88 490.88" id="arrowBottom" xmlns="http://www.w3.org/2000/svg"><path fill="var(--color-out)" d="M490.88 245.419C490.868 109.866 380.971-.012 245.419 0 109.866.012-.011 109.909 0 245.461.012 381.005 109.896 490.88 245.44 490.88c135.498-.153 245.299-109.964 245.44-245.461z" data-original="#4caf50"/><path fill="var(--color-in)" d="M106.667 202.88a10.667 10.667 0 0118.219-7.552l120.448 120.491 120.447-120.491c4.237-4.092 10.99-3.975 15.083.262 3.992 4.134 3.992 10.687 0 14.82l-128 128c-4.165 4.164-10.917 4.164-15.083 0l-128-128a10.66 10.66 0 01-3.114-7.53z" data-original="#fafafa"/></svg><svg width="30" height="30" viewBox="0 0 417.813 417" id="check" xmlns="http://www.w3.org/2000/svg"><path d="M159.988 318.582c-3.988 4.012-9.43 6.25-15.082 6.25s-11.094-2.238-15.082-6.25L9.375 198.113c-12.5-12.5-12.5-32.77 0-45.246l15.082-15.086c12.504-12.5 32.75-12.5 45.25 0l75.2 75.203L348.104 9.781c12.504-12.5 32.77-12.5 45.25 0l15.082 15.086c12.5 12.5 12.5 32.766 0 45.246zm0 0" data-original="#000000"/></svg><svg width="12" height="12" viewBox="0 0 417.813 417" id="checkS" xmlns="http://www.w3.org/2000/svg"><path d="M159.988 318.582c-3.988 4.012-9.43 6.25-15.082 6.25s-11.094-2.238-15.082-6.25L9.375 198.113c-12.5-12.5-12.5-32.77 0-45.246l15.082-15.086c12.504-12.5 32.75-12.5 45.25 0l75.2 75.203L348.104 9.781c12.504-12.5 32.77-12.5 45.25 0l15.082 15.086c12.5 12.5 12.5 32.766 0 45.246zm0 0" data-original="#000000"/></svg><svg width="40" height="40" viewBox="0 0 489.8 489.8" id="close" xmlns="http://www.w3.org/2000/svg"><g><path d="M413.071 31.837H76.729c-24.795 0-44.892 20.184-44.892 44.892v336.342c0 24.795 20.184 44.892 44.892 44.892h336.342c24.795 0 44.892-20.184 44.892-44.892V76.729c0-24.708-20.184-44.892-44.892-44.892zm23.577 381.234c0 12.963-10.614 23.577-23.577 23.577H76.729c-12.963 0-23.577-10.614-23.577-23.577V76.729c0-12.963 10.614-23.577 23.577-23.577h336.342c12.963 0 23.577 10.614 23.577 23.577v336.342z" data-original="#000000"/><path d="M309.367 180.433a10.607 10.607 0 00-15.051 0L244.9 229.849l-49.416-49.416c-4.176-4.176-10.875-4.176-15.051 0s-4.176 10.875 0 15.051l49.416 49.416-49.416 49.416a10.607 10.607 0 000 15.051c2.088 2.088 4.785 3.132 7.569 3.132s5.481-1.044 7.569-3.132l49.416-49.416 49.416 49.416c2.088 2.088 4.785 3.132 7.569 3.132s5.481-1.044 7.569-3.132a10.607 10.607 0 000-15.051l-49.59-49.416 49.416-49.416a10.607 10.607 0 000-15.051z" data-original="#000000"/></g></svg><svg width="30" height="30" viewBox="0 0 511.997 511.997" id="coding" xmlns="http://www.w3.org/2000/svg"><path d="M506.76 242.828l-118.4-125.44c-7.277-7.718-19.424-8.07-27.142-.787-7.706 7.277-8.064 19.43-.781 27.142l105.965 112.256-105.965 112.269c-7.283 7.712-6.925 19.859.781 27.142a19.151 19.151 0 0013.178 5.235 19.172 19.172 0 0013.965-6.01l118.4-125.446c6.981-7.404 6.981-18.963-.001-26.361zM151.566 368.262L45.608 255.999l105.958-112.262c7.277-7.712 6.925-19.866-.787-27.142-7.706-7.277-19.866-6.925-27.142.787l-118.4 125.44c-6.982 7.398-6.982 18.963 0 26.362L123.643 394.63c3.776 4 8.864 6.016 13.965 6.016 4.723 0 9.466-1.741 13.171-5.242 7.719-7.277 8.064-19.43.787-27.142zM287.061 52.697c-10.477-1.587-20.282 5.606-21.882 16.083l-56.32 368.64c-1.6 10.483 5.6 20.282 16.083 21.882.986.147 1.958.218 2.925.218 9.325 0 17.504-6.803 18.957-16.301l56.32-368.64c1.6-10.484-5.6-20.282-16.083-21.882z" data-original="#000000"/></svg><svg width="46" height="42" xmlns:svgjs="http://svgjs.com/svgjs" viewBox="172 4972 46 42" id="facebook" xmlns="http://www.w3.org/2000/svg"><svg width="46" height="42" xmlns:svgjs="http://svgjs.com/svgjs" viewBox="0 0.044 46 41.912" fill="#fff" x="172" y="4972"><svg width="46" height="42" viewBox="1.002 1.997 44.997 40.998"><path paint-order="stroke fill markers" fill-rule="evenodd" d="M12.251 42.995l-11.25-20.5 11.25-20.498H34.75L46 22.496l-11.25 20.5H12.251z"/></svg></svg><svg width="11" height="20" xmlns:svgjs="http://svgjs.com/svgjs" viewBox="0.778 0 9.444 20" fill="#ff0036" x="188" y="4984"><svg width="11" height="20" viewBox="1.448 2.207 8.648 18.315"><path paint-order="stroke fill markers" fill-rule="evenodd" d="M9.675 2.212H7.848s-3.812-.29-3.812 3.762v2.783H1.448l.007 2.183h2.58l.002 9.583H6.63V10.94h2.856l.61-2.183H6.644V5.892S6.616 4.83 7.851 4.83h1.812l.012-2.617z"/></svg></svg></svg><svg width="70" height="70" viewBox="0 0 70 70" id="facebook2" xmlns="http://www.w3.org/2000/svg"><g class="gcurrentLayer"><path fill="var(--color-follow-out)" d="M2.388 34.643l16.3-29.753h32.597l16.298 29.753-16.298 29.753H18.687L2.388 34.643z"/></g><path fill="var(--color-follow-in)" d="M38.81 25.527h2.192V21.71c-.378-.052-1.678-.17-3.192-.17-3.16 0-5.323 1.988-5.323 5.64v3.36H29v4.267h3.486v10.734h4.274V34.809h3.345l.53-4.266H36.76v-2.94c0-1.232.333-2.076 2.05-2.076z"/></svg><svg width="46" height="42" xmlns:svgjs="http://svgjs.com/svgjs" viewBox="282 4972 46 42" id="google" xmlns="http://www.w3.org/2000/svg"><svg width="46" height="42" xmlns:svgjs="http://svgjs.com/svgjs" viewBox="0 0.044 46 41.912" fill="#fff" x="282" y="4972"><svg width="46" height="42" viewBox="1.002 1.997 44.997 40.998"><path paint-order="stroke fill markers" fill-rule="evenodd" d="M12.251 42.995l-11.25-20.5 11.25-20.498H34.75L46 22.496l-11.25 20.5H12.251z"/></svg></svg><svg width="16" height="16" xmlns:svgjs="http://svgjs.com/svgjs" viewBox="0 0.112 16 15.777" fill="#ff0036" x="298" y="4987"><svg width="16" height="16" viewBox="1.651 1.996 14.344 14.144"><path paint-order="stroke fill markers" fill-rule="evenodd" d="M9.087 10.081c-.395-.29-1.252-.885-1.252-1.284 0-.469.136-.699.854-1.25.735-.566 1.255-1.309 1.255-2.232 0-1.006-.418-1.918-1.206-2.36h1.116l.95-.959h-4.25c-2.157 0-3.955 1.541-3.955 3.26 0 1.756 1.181 3.157 3.21 3.157.14 0 .278-.01.412-.018a1.741 1.741 0 00-.226.815c0 .486.273.766.611 1.087-.255 0-.501.007-.77.007-2.47 0-4.185.77-4.185 3.154 0 1.579 2.07 2.682 4.54 2.682 2.815 0 4.571-1.465 4.546-3.147-.02-1.263-.278-1.9-1.65-2.912zM4.322 5.345c-.189-1.396.764-2.368 1.851-2.338C7.26 3.04 7.968 4.09 8.155 5.485c.187 1.397-.437 2.257-1.524 2.226-1.088-.033-2.122-.969-2.309-2.366zm1.82 9.761c-1.604 0-2.763-.907-2.763-2.02 0-1.093 1.3-1.672 2.871-1.672.585 0 2.338 0 2.883 1.334.047.124.05.26.05.393 0 1.117-.785 1.965-3.041 1.965zm9.854-10.422H13.95V6.71h-.68V4.684h-2.04V4.02h2.042V1.998h.679V4.02h2.045v.664z"/></svg></svg></svg><svg width="70" height="70" viewBox="0 0 70 70" id="google2" xmlns="http://www.w3.org/2000/svg"><g transform="matrix(1.02777 0 0 1.06349 43.624 45.644)" class="icurrentLayer" stroke="null"><path fill="var(--color-follow-out)" d="M-41.489-9.175l16.3-29.753H7.407L23.706-9.175 7.408 20.578H-25.19L-41.489-9.175z"/></g><g stroke="null"><path fill="var(--color-follow-in)" d="M41.877 33.14v-2.29h-1.379v2.29H38.43v1.526h2.068v2.29h1.38v-2.29h2.068v-1.527h-2.069zm-5.309 2.594l-.758-.61c-.276-.23-.552-.535-.552-1.069s.345-.992.69-1.221c.896-.763 1.792-1.603 1.792-3.282 0-1.603-.896-2.52-1.379-2.977h1.172l.828-1.069h-4.275c-3.034 0-4.55 2.137-4.55 4.427 0 1.756 1.24 3.664 3.447 3.664h.551c-.069.23-.276.61-.276.992 0 .764.276 1.07.62 1.527-.964.076-2.757.305-4.067 1.221-1.241.84-1.586 1.985-1.586 2.824 0 1.756 1.448 3.435 4.55 3.435 3.724 0 5.517-2.29 5.517-4.503 0-1.603-.759-2.443-1.724-3.359zm-5.24-6.946c0-1.679.896-2.442 1.861-2.442 1.793 0 2.758 2.671 2.758 4.198 0 1.985-1.447 2.366-2 2.366-1.723 0-2.62-2.366-2.62-4.122zm2.482 13.74c-2.275 0-3.723-1.145-3.723-2.825 0-1.679 1.379-2.213 1.792-2.442.897-.305 2.069-.382 2.276-.382h.482c1.655 1.298 2.345 1.832 2.345 3.053 0 1.45-1.31 2.596-3.172 2.596z"/></g></svg><svg width="30" height="30" viewBox="0 0 512 512" id="heart" xmlns="http://www.w3.org/2000/svg"><path d="M376 30c-27.783 0-53.255 8.804-75.707 26.168-21.525 16.647-35.856 37.85-44.293 53.268-8.437-15.419-22.768-36.621-44.293-53.268C189.255 38.804 163.783 30 136 30 58.468 30 0 93.417 0 177.514c0 90.854 72.943 153.015 183.369 247.118 18.752 15.981 40.007 34.095 62.099 53.414C248.38 480.596 252.12 482 256 482s7.62-1.404 10.532-3.953c22.094-19.322 43.348-37.435 62.111-53.425C439.057 330.529 512 268.368 512 177.514 512 93.417 453.532 30 376 30z" data-original="#000000"/></svg><svg width="70" height="70" viewBox="0 0 184.751 184.751" id="hexagon" xmlns="http://www.w3.org/2000/svg"><path d="M0 92.375l46.188-80h92.378l46.185 80-46.185 80H46.188L0 92.375z" data-original="#000000"/></svg><svg width="70" height="70" viewBox="0 0 70 70" id="hexagon2" xmlns="http://www.w3.org/2000/svg"><rect width="100%" height="100%" fill="none"/><g class="lcurrentLayer"><g><path xmlns="http://www.w3.org/2000/svg" d="M2.388 34.893l16.3-29.753h32.597l16.298 29.753-16.298 29.753H18.687L2.388 34.893z" data-original="#000000"/></g></g></svg><svg width="34" height="34" viewBox="0 0 184.751 184.751" id="hexagonS" xmlns="http://www.w3.org/2000/svg"><path d="M0 92.375l46.188-80h92.378l46.185 80-46.185 80H46.188L0 92.375z" data-original="#000000"/></svg><svg width="30" height="30" viewBox="0 0 512 512" id="html" xmlns="http://www.w3.org/2000/svg"><path d="M66.86 448.059L261.112 512l194.254-63.941L487.227 0H35zM406.616 75l-4.277 60H180.094l5.418 77h211.48l-12.879 180.602-123 41.101-123.004-41.101L133.906 332h60l1.215 16.492 65.992 21.903 66.004-21.899 5.39-76.496H129.41l-13.8-197zm0 0" data-original="#000000"/></svg><svg width="30" height="30" viewBox="0 0 85.356 85.356" id="laptop" xmlns="http://www.w3.org/2000/svg"><path d="M77.45 57.695V16.599a3.17 3.17 0 00-3.16-3.16H11.066a3.169 3.169 0 00-3.164 3.16V57.695L0 67.179a4.742 4.742 0 004.742 4.738h75.872a4.745 4.745 0 004.742-4.738l-7.906-9.484zM49.005 70.342H36.358a.789.789 0 01-.791-.791c0-.44.354-.791.791-.791h12.648c.433 0 .791.351.791.791a.8.8 0 01-.792.791zm-19.358-3.16l2.412-2.895h21.233l2.416 2.895H29.647zm43.354-15.078a2.762 2.762 0 01-2.756 2.759H15.11a2.769 2.769 0 01-2.756-2.759V19.036a2.762 2.762 0 012.756-2.759h55.136a2.767 2.767 0 012.756 2.759l-.001 33.068z" fill="#010002" data-original="#010002"/></svg><svg width="30" height="30" viewBox="0 0 978.673 978.673" id="leaf" xmlns="http://www.w3.org/2000/svg"><g><path d="M64.126 214.123c35.6 82.801 95.7 164.7 179.8 200.001 9.6 4 20.5 7 31.7 9.5 22.4-33.4 48.1-60.501 78.2-82.7 25.899-19 53-33.9 80.899-45.601-8-5.6-16.399-10.7-25.2-15.3-35-18.3-72.899-34.4-109.8-51.7 34.7 9.4 74.5 12.9 107.7 25 20.7 7.601 39.8 18.101 57.6 30.601 53.101-18.101 108.601-26.801 164-33.4-44.899-74.6-140.7-134.5-212.9-161.6-75.4-28.301-160.8-31.801-244.7-40.5-51.4-5.301-107.3-24.5-148.2-46.9-9.3-5.1-19.2 3.4-16 13.7 20.101 64.299 30.301 137.099 56.901 198.899z" data-original="#000000"/><path d="M950.627 204.323c-94.601 51.4-203.101 57.7-309.4 69.9-51.899 6-103.3 13.399-152.201 28.2-10.6 3.199-21.199 6.8-31.6 10.8-30.9 11.8-60.7 27.3-88.8 48-26.4 19.399-48 42.4-66.2 67.7-29 40.399-49.2 86.899-65.8 135.2-30.3 87.699-44.2 180.899-41.5 273.6 1.1 37.6 1.7 76.7 11 113.4 2.1 8.1 4.1 18.399 10.4 24.399 8.2 7.9 22.9-.2 19.6-11.7-23.8-81.1-9-175.899 23.9-253.399 37.8-89.101 110.8-142.101 200-174.4 23.7-8.6 47.901-16.1 72.5-23.2.5-.199 1-.199 1.5-.199 4.9 0 7 7.199 1.9 9.5-29 13.1-57.8 26.3-85.201 40.6-134.2 70-192.8 233-142.5 233 4.101 0 8.9-1.1 14.4-3.4 77.6-32.1 169.8-32.399 255.1-48.199 30-5.5 59.2-13 86.601-24.4 108.8-45.4 186.6-134.2 232.899-241 34.5-79.7 47.9-173.8 74-256.601 3.4-10.6-4.1-19.699-13.3-19.699-2.298-.102-4.798.499-7.298 1.898z" data-original="#000000"/></g></svg><svg height="60" viewBox="0 0 480.063 480.063" width="60" id="man" xmlns="http://www.w3.org/2000/svg"><path d="M394.032 424.803v39.26c0 4.42-3.58 8-8 8h-292c-4.42 0-8-3.58-8-8v-39.26c0-41.19 33.39-74.56 74.59-74.57 14.56-.01 27.38-7.5 34.76-18.86 7.414-11.394 6.65-21.302 6.65-29.31l.15-.37c-35.9-14.86-61.15-50.23-61.15-91.5v-3.13c-14.255 0-25-11.265-25-24.54v-41.56c-.32-14.47.34-65.5 37.2-101.03 42.86-41.31 110.78-37.93 159.98-15.83 1.6.72 1.55 3.01-.07 3.68l-12.83 5.28c-1.92.79-1.51 3.62.55 3.84l6.23.67c29.83 3.19 57.54 19.39 74.72 46.35.46.73.33 1.84-.26 2.47a60.503 60.503 0 00-16.52 41.56v54.57c0 13.55-10.99 24.54-24.54 24.54h-1.46v3.13c0 41.27-25.25 76.64-61.15 91.5l.15.37c0 7.777-.827 17.82 6.65 29.31 7.38 11.36 20.2 18.85 34.76 18.86 41.2.01 74.59 33.38 74.59 74.57z" fill="#ffdfba"/><path d="M394.032 424.803v39.26a8 8 0 01-8 8h-292a8 8 0 01-8-8v-39.26c0-41.19 33.395-74.555 74.585-74.57 14.564-.005 27.387-7.504 34.765-18.86 25.754 22.002 63.531 22.015 89.3 0 7.377 11.356 20.201 18.855 34.765 18.86 41.19.015 74.585 33.38 74.585 74.57z" fill="#fe4f60"/><path d="M381.807 83.928c.464.729.334 1.833-.259 2.461a60.537 60.537 0 00-16.517 41.564v54.57c0 12.388-9.333 24.54-26 24.54v-61.77c0-26.51-21.49-48-48-48h-102c-26.51 0-48 21.49-48 48v61.77c-14.255 0-25-11.265-25-24.54v-41.56c-.32-14.47.34-65.5 37.2-101.03C196.089-1.378 264.015 2.004 313.208 24.106c1.601.719 1.558 3.01-.065 3.678l-12.831 5.282c-1.918.79-1.514 3.617.548 3.838l6.232.669c29.834 3.187 57.537 19.387 74.715 46.355z" fill="#42434d"/><path d="M339.032 210.193c0 54.696-44.348 99-99 99-51.492 0-99-40.031-99-102.13v-61.77c0-26.51 21.49-48 48-48h102c26.51 0 48 21.49 48 48z" fill="#ffebd2"/><path d="M217.616 274.121c16.277 10.183 3.442 35.156-14.376 28.004-36.634-14.704-62.208-50.404-62.208-91.932v-64.9a47.783 47.783 0 018.423-27.168c6.514-9.473 21.577-5.288 21.577 7.168v64.9c0 36.51 19.192 66.79 46.584 83.928z" fill="#fff3e4"/><path d="M279.162 318.483c-24.637 10.313-51.712 11.113-78.26 0 1.356-5.626 1.13-9.27 1.13-16.42l.15-.37c24.082 9.996 51.571 10.016 75.7 0l.15.37c0 7.153-.226 10.796 1.13 16.42z" fill="#ffd6a6"/><path d="M200.913 374.39c-3.698 1.163-7.664 1.804-11.916 1.841-41.296.364-74.966 33.017-74.966 74.315v7.517c0 7.732-6.268 14-14 14h-6a8 8 0 01-8-8v-39.26c0-41.191 33.395-74.555 74.585-74.57 14.564-.005 27.387-7.504 34.765-18.86a69.21 69.21 0 009.512 6.822c14.753 8.791 12.402 31.044-3.98 36.195z" fill="#ff6d7a"/><path d="M279.15 374.39c3.698 1.163 7.664 1.804 11.916 1.841 41.296.364 74.966 33.017 74.966 74.315v7.517c0 7.732 6.268 14 14 14h6a8 8 0 008-8v-39.26c0-41.191-33.395-74.555-74.585-74.57-14.564-.005-27.387-7.504-34.765-18.86a69.21 69.21 0 01-9.512 6.822c-14.753 8.791-12.402 31.044 3.98 36.195z" fill="#e84857"/><path d="M313.142 27.783c-11.758 4.839-13.434 5.906-17.508 5.274-65.674-10.18-123.294 16.993-142.862 80.786v.01a47.761 47.761 0 00-11.74 31.44v37.523c0 16.188-25 17.315-25-.293v-41.56c-.32-14.47.34-65.5 37.2-101.03 42.86-41.31 110.78-37.93 159.98-15.83 1.6.72 1.55 3.01-.07 3.68z" fill="#4d4e59"/><path d="M402.032 424.806v47.257a8 8 0 01-16 0v-47.257c0-36.795-29.775-66.572-66.573-66.571-17.411 0-33.208-8.87-42.259-23.728a8 8 0 012.671-10.994 8 8 0 0110.994 2.671c6.122 10.051 16.811 16.051 28.594 16.051 45.637-.002 82.573 36.93 82.573 82.571zm-139.606-80.193a8 8 0 01-6.113 9.52c-21.054 4.587-42.467-.005-59.516-11.642-16.878 18.087-39.176 15.744-36.191 15.744-36.795-.001-66.573 29.773-66.573 66.571v47.257a8 8 0 01-16 0v-47.257c0-45.636 36.929-82.571 82.571-82.571 18.462 0 33.429-14.875 33.429-33.342v-2.107c-34.919-16.697-59.429-51.784-60.923-92.643-14.37-3.455-25.077-16.317-25.077-31.62V141.05c-.437-20.3 2.577-71.143 39.648-106.877C193.456-9.953 266.864-7.15 320.842 18.835c5.261 2.535 6.06 9.643 1.691 13.324 27.345 6.67 50.925 23.48 66.074 47.538.782 1.239 2.214 3.184 1.84 6.287-.232 1.931-.807 3.565-2.295 5.075-9.75 9.888-15.119 22.991-15.119 36.896v54.57a8 8 0 01-16 0v-54.57c0-16.037 5.479-31.259 15.542-43.487-15.338-21.936-39.268-36.044-66.332-38.942l-14.061-1.506c-8.222-.88-9.835-12.207-2.194-15.352l6.395-2.633C213.097-3 124.032 29.261 124.032 140.963v41.56c0 6.348 3.656 11.865 9 14.636v-51.863c0-30.878 25.122-56 56-56h102c30.878 0 56 25.12 56 55.997v65.503c0 69.574-67.988 122.42-137.17 102.053a48.914 48.914 0 01-4.186 16.336c13.458 9.242 30.453 12.97 47.23 9.314a8.001 8.001 0 019.52 6.114zm-22.394-43.425c50.178 0 91-40.822 91-91v-64.895c0-22.054-17.944-39.997-40-39.997h-102c-22.056 0-40 17.944-40 40v64.892c0 50.178 40.822 91 91 91zm81 137.875h-24a8 8 0 000 16h24a8 8 0 000-16z"/></svg><svg width="30" height="30" viewBox="0 0 484 484" id="pen" xmlns="http://www.w3.org/2000/svg"><path d="M421.648 28.234c-24.394-24.351-63.898-24.351-88.293 0l-22.101 22.223-235.27 235.145-.5.503c-.12.122-.12.25-.25.25-.25.375-.625.747-.87 1.122 0 .125-.13.125-.13.25-.25.375-.37.625-.625 1-.12.125-.12.246-.246.375-.125.375-.25.625-.379 1 0 .12-.12.12-.12.25l-52.2 156.968a12.288 12.288 0 002.996 12.735 12.564 12.564 0 008.867 3.625c1.356-.024 2.7-.235 3.996-.625l156.848-52.325c.121 0 .121 0 .25-.12a4.523 4.523 0 001.121-.505.443.443 0 00.254-.12c.371-.25.871-.505 1.246-.755.371-.246.75-.62 1.125-.87.125-.13.246-.13.246-.25.13-.126.38-.247.504-.5l257.371-257.372c24.352-24.394 24.352-63.898 0-88.289zM189.375 381.383l-86.914-86.91L319.996 76.938l86.914 86.91zm-99.156-63.809l75.93 75.926-114.016 37.96zm347.664-184.82l-13.238 13.363L337.727 59.2l13.367-13.36c14.62-14.609 38.32-14.609 52.945 0l33.965 33.966c14.512 14.687 14.457 38.332-.121 52.949zm0 0" data-original="#000000"/></svg><svg width="30" height="30" viewBox="0 0 31.685 31.685" id="phone" xmlns="http://www.w3.org/2000/svg"><g><path d="M22.507 0H9.175A2.306 2.306 0 006.87 2.309v27.07a2.306 2.306 0 002.305 2.306h13.332a2.308 2.308 0 002.307-2.306V2.309A2.31 2.31 0 0022.507 0zm.578 25.672H8.599V3.895h14.486v21.777zM18.932 2.343h-6.181v-.674h6.182l-.001.674zm2.645-.308a.591.591 0 01-1.182 0 .591.591 0 011.182 0zm-2.922 27.19h-5.629v-1.732h5.629v1.732z" data-original="#000000"/></g></svg><svg width="70" height="70" viewBox="0 0 70 70" id="pinterest2" xmlns="http://www.w3.org/2000/svg"><g stroke="null"><path fill="var(--color-follow-out)" d="M36.82 102.222l46.188-80h92.378l46.185 80-46.185 80H83.008l-46.188-80z" transform="matrix(.38388 0 0 .4211 -14.345 -8.463)"/></g><path fill="#fff" d="M36.828 24c-4.948 0-7.578 3.191-7.578 6.67 0 1.613.896 3.626 2.33 4.264.41.185.355-.04.707-1.396a.323.323 0 00-.077-.315c-2.05-2.387-.4-7.294 4.326-7.294 6.839 0 5.561 9.524 1.19 9.524-1.127 0-1.966-.89-1.7-1.991.321-1.312.951-2.722.951-3.668 0-2.382-3.527-2.029-3.527 1.128 0 .976.343 1.634.343 1.634s-1.135 4.615-1.346 5.477c-.356 1.46.048 3.822.084 4.025.022.112.146.148.216.056.112-.148 1.484-2.118 1.869-3.541.14-.519.713-2.623.713-2.623.379.687 1.47 1.262 2.631 1.262 3.457 0 5.956-3.058 5.956-6.852-.012-3.638-3.106-6.36-7.088-6.36z" stroke="null"/></svg><svg width="46" height="42" xmlns:svgjs="http://svgjs.com/svgjs" viewBox="227 4972 46 42" id="twitter" xmlns="http://www.w3.org/2000/svg"><svg width="46" height="42" xmlns:svgjs="http://svgjs.com/svgjs" viewBox="0 0.044 46 41.912" fill="#fff" x="227" y="4972"><svg width="46" height="42" viewBox="1.002 1.997 44.997 40.998"><path paint-order="stroke fill markers" fill-rule="evenodd" d="M12.251 42.995l-11.25-20.5 11.25-20.498H34.75L46 22.496l-11.25 20.5H12.251z"/></svg></svg><svg width="19" height="16" xmlns:svgjs="http://svgjs.com/svgjs" viewBox="0 0.422 19 15.157" fill="#ff0036" x="241" y="4986"><svg width="19" height="16" viewBox="1.01 1.86 17.716 14.133"><path paint-order="stroke fill markers" fill-rule="evenodd" d="M18.726 3.532a7.393 7.393 0 01-2.088.564 3.599 3.599 0 001.598-1.975 7.393 7.393 0 01-2.307.866 3.657 3.657 0 00-2.653-1.127c-2.008 0-3.635 1.597-3.635 3.57 0 .276.032.55.094.811-3.02-.15-5.7-1.569-7.492-3.728a3.5 3.5 0 00-.492 1.794 3.55 3.55 0 001.617 2.969 3.656 3.656 0 01-1.646-.447v.046c0 1.729 1.252 3.17 2.915 3.498a3.688 3.688 0 01-1.642.06c.463 1.419 1.805 2.45 3.396 2.478a7.372 7.372 0 01-4.514 1.528c-.294 0-.583-.016-.867-.05a10.427 10.427 0 005.571 1.603c6.686 0 10.341-5.437 10.341-10.15 0-.156-.003-.31-.01-.462a7.333 7.333 0 001.814-1.848z"/></svg></svg></svg><svg width="70" height="70" viewBox="0 0 70 70" id="twitter2" xmlns="http://www.w3.org/2000/svg"><g stroke="null"><path fill="var(--color-follow-out)" d="M1966.77 2085.032l46.189-80h92.378l46.185 80-46.185 80h-92.378l-46.188-80z" transform="matrix(.35605 0 0 .40658 -697.572 -812.473)"/></g><path fill="var(--color-follow-in)" d="M47.312 27.5a9.153 9.153 0 01-2.574.722 4.53 4.53 0 001.965-2.527c-.863.527-1.817.899-2.833 1.107a4.432 4.432 0 00-3.265-1.447c-2.474 0-4.465 2.054-4.465 4.573 0 .363.03.711.103 1.043-3.715-.186-7.003-2.007-9.211-4.783a4.685 4.685 0 00-.612 2.311c0 1.584.797 2.988 1.985 3.8a4.337 4.337 0 01-2.019-.563v.05c0 2.222 1.55 4.068 3.58 4.493-.363.102-.76.15-1.171.15-.286 0-.575-.016-.846-.078.579 1.811 2.222 3.142 4.176 3.186a8.85 8.85 0 01-5.541 1.95c-.367 0-.718-.017-1.07-.063a12.375 12.375 0 006.856 2.052c8.223 0 12.719-6.97 12.719-13.011 0-.202-.007-.397-.016-.591a9.032 9.032 0 002.24-2.374z"/></svg><svg width="30" height="30" viewBox="0 0 24 24" id="wordpress" xmlns="http://www.w3.org/2000/svg"><path d="M12 0C5.385 0 0 5.381 0 12c0 6.615 5.385 12 12 12s12-5.385 12-12c0-6.62-5.385-12-12-12zM1.21 11.999c0-1.563.333-3.048.934-4.389l5.148 14.1a10.794 10.794 0 01-6.082-9.711zM12 22.79c-1.06 0-2.081-.155-3.048-.441l3.237-9.406 3.315 9.087c.024.054.049.101.077.15-1.118.392-2.323.61-3.581.61zm1.485-15.845v-.001a22.684 22.684 0 001.233-.101c.581-.068.513-.924-.068-.891 0 0-1.747.135-2.874.135-1.06 0-2.841-.135-2.841-.135-.58-.034-.647.857-.067.891 0 0 .551.068 1.132.101l1.679 4.606-2.361 7.079L5.39 6.944c.649-.034 1.234-.101 1.234-.101.581-.068.513-.924-.068-.891 0 0-1.747.135-2.874.135-.203 0-.441-.005-.697-.014A10.781 10.781 0 0112 1.21c2.807 0 5.366 1.075 7.287 2.83a1.333 1.333 0 00-.14-.009c-1.06 0-1.81.924-1.81 1.916 0 .89.513 1.64 1.06 2.531.411.716.891 1.64.891 2.976 0 .924-.353 1.993-.823 3.489l-1.075 3.595zm7.985-.122a10.746 10.746 0 011.321 5.178c0 3.982-2.158 7.456-5.366 9.324l-.001-.001 3.295-9.528c.614-1.539.823-2.767.823-3.866a7.99 7.99 0 00-.072-1.107z" data-original="#000000"/></svg></svg>