<svg width="46" height="42" xmlns="http://www.w3.org/2000/svg" xmlns:xlink="http://www.w3.org/1999/xlink" xmlns:svgjs="http://svgjs.com/svgjs" viewBox="227 4972 46 42"><svg width="46" height="42" xmlns="http://www.w3.org/2000/svg" xmlns:xlink="http://www.w3.org/1999/xlink" xmlns:svgjs="http://svgjs.com/svgjs" viewBox="0 0.044 46 41.912" fill="#fff" x="227" y="4972"><svg xmlns="http://www.w3.org/2000/svg" xmlns:xlink="http://www.w3.org/1999/xlink" width="46" height="42" viewBox="1.002 1.997 44.997 40.998"><path paint-order="stroke fill markers" fill-rule="evenodd" d="M12.251 42.995l-11.25-20.5 11.25-20.498H34.75L46 22.496l-11.25 20.5H12.251z"/></svg></svg><svg width="19" height="16" xmlns="http://www.w3.org/2000/svg" xmlns:xlink="http://www.w3.org/1999/xlink" xmlns:svgjs="http://svgjs.com/svgjs" viewBox="0 0.422 19 15.157" fill="#ff0036" x="241" y="4986"><svg xmlns="http://www.w3.org/2000/svg" width="19" height="16" viewBox="1.01 1.86 17.716 14.133"><path paint-order="stroke fill markers" fill-rule="evenodd" d="M18.726 3.532a7.393 7.393 0 01-2.088.564 3.599 3.599 0 001.598-1.975 7.393 7.393 0 01-2.307.866 3.657 3.657 0 00-2.653-1.127c-2.008 0-3.635 1.597-3.635 3.57 0 .276.032.55.094.811-3.02-.15-5.7-1.569-7.492-3.728a3.5 3.5 0 00-.492 1.794 3.55 3.55 0 001.617 2.969 3.656 3.656 0 01-1.646-.447v.046c0 1.729 1.252 3.17 2.915 3.498a3.688 3.688 0 01-1.642.06c.463 1.419 1.805 2.45 3.396 2.478a7.372 7.372 0 01-4.514 1.528c-.294 0-.583-.016-.867-.05a10.427 10.427 0 005.571 1.603c6.686 0 10.341-5.437 10.341-10.15 0-.156-.003-.31-.01-.462a7.333 7.333 0 001.814-1.848z"/></svg></svg></svg>