<svg width="70" height="70" xmlns="http://www.w3.org/2000/svg"><path fill="var(--color-follow-out)" d="M1966.77 2085.032l46.189-80h92.378l46.185 80-46.185 80h-92.378l-46.188-80z" transform="matrix(.35605 0 0 .40658 -697.572 -812.473)" stroke="null"/><path fill="var(--color-follow-in)" d="M47.312 27.5a9.153 9.153 0 01-2.574.722 4.53 4.53 0 001.965-2.527 8.806 8.806 0 01-2.833 1.107 4.432 4.432 0 00-3.265-1.447c-2.474 0-4.465 2.054-4.465 4.573 0 .363.03.711.103 1.043-3.715-.186-7.003-2.007-9.211-4.783a4.685 4.685 0 00-.612 2.311c0 1.584.797 2.988 1.985 3.8a4.337 4.337 0 01-2.019-.563v.05c0 2.222 1.55 4.068 3.58 4.493-.363.102-.76.15-1.171.15-.286 0-.575-.016-.846-.078.579 1.811 2.222 3.142 4.176 3.186a8.85 8.85 0 01-5.541 1.95 8.19 8.19 0 01-1.07-.063 12.375 12.375 0 006.856 2.052c8.223 0 12.719-6.97 12.719-13.011 0-.202-.007-.397-.016-.591a9.032 9.032 0 002.24-2.374z"/></svg>